<svg width="173" height="88" viewBox="0 0 173 88" fill="none" xmlns="http://www.w3.org/2000/svg">
<path d="M18.2812 70.5625C19.2188 70.5625 20.0156 70.3984 20.6719 70.0703C20.25 69.3203 19.7812 68.5938 19.2656 67.8906C18.75 67.1406 18.2109 66.4844 17.6484 65.9219C17.0859 65.3125 16.5 64.8203 15.8906 64.4453C15.2812 64.0703 14.625 63.8828 13.9219 63.8828C13.4062 63.8828 12.9844 64.0938 12.6562 64.5156C12.375 64.8906 12.2578 65.3828 12.3047 65.9922C12.3516 66.5547 12.5859 67.1641 13.0078 67.8203C13.4297 68.4766 14.1094 69.0859 15.0469 69.6484C15.9844 70.2578 17.0625 70.5625 18.2812 70.5625ZM22.7109 23.4531C24.4453 23.5 26.1328 24.1094 27.7734 25.2812C29.4609 26.4531 30.9375 28.0938 32.2031 30.2031C33.4688 32.3125 34.4531 34.8438 35.1562 37.7969C35.9062 40.75 36.2578 44.0547 36.2109 47.7109C36.1172 52.9609 35.3672 57.6719 33.9609 61.8438C32.5547 66.0156 30.5859 69.3438 28.0547 71.8281C29.3672 73.3281 30.7031 74.4531 32.0625 75.2031C33.4688 75.9531 35.2969 76.3281 37.5469 76.3281C37.3594 77.3125 36.9375 78.0859 36.2812 78.6484C35.6719 79.2109 35.0391 79.6562 34.3828 79.9844C33.5391 80.3594 32.6484 80.6172 31.7109 80.7578C30.5391 80.8516 29.5078 80.7109 28.6172 80.3359C27.7734 80.0078 27.0234 79.5391 26.3672 78.9297C25.7578 78.3203 25.2188 77.6641 24.75 76.9609C24.2812 76.2578 23.8594 75.6016 23.4844 74.9922C21.75 75.6953 19.9453 76.0234 18.0703 75.9766C15.5391 75.9297 13.2188 75.3672 11.1094 74.2891C9.04688 73.2109 7.26562 71.5938 5.76562 69.4375C4.3125 67.2812 3.1875 64.5625 2.39062 61.2812C1.64062 58 1.3125 54.1328 1.40625 49.6797C1.5 45.2266 2.17969 41.3359 3.44531 38.0078C4.71094 34.6328 6.1875 31.8203 7.875 29.5703C9.60938 27.2734 11.3906 25.5391 13.2188 24.3672C15.0938 23.1484 16.6641 22.4688 17.9297 22.3281C18.5859 22.7969 19.1484 23.3359 19.6172 23.9453C19.9922 23.8047 20.4141 23.6875 20.8828 23.5938C21.3984 23.5 22.0078 23.4531 22.7109 23.4531ZM29.0391 48.1328C29.0859 45.7422 28.9219 43.4453 28.5469 41.2422C28.1719 38.9922 27.6562 37 27 35.2656C26.3906 33.5312 25.6875 32.1484 24.8906 31.1172C24.0938 30.0391 23.2734 29.4766 22.4297 29.4297C21.8203 29.4766 21.2109 29.6641 20.6016 29.9922C20.0859 30.3203 19.5234 30.8125 18.9141 31.4688C18.3516 32.125 17.8125 33.0625 17.2969 34.2812C16.7812 33.625 16.4531 32.9219 16.3125 32.1719C16.2188 31.4219 16.2188 30.6719 16.3125 29.9219C15.0469 30.8594 13.9453 32.0312 13.0078 33.4375C12.1172 34.7969 11.3672 36.3203 10.7578 38.0078C10.1484 39.6484 9.67969 41.4062 9.35156 43.2812C9.02344 45.1094 8.83594 46.9844 8.78906 48.9062C8.74219 51.6719 8.83594 54.1328 9.07031 56.2891C9.30469 58.4453 9.63281 60.3438 10.0547 61.9844C10.3828 61.2344 10.8984 60.625 11.6016 60.1562C12.3047 59.6875 13.2656 59.4531 14.4844 59.4531C16.1719 59.4531 17.7422 60.0156 19.1953 61.1406C20.6953 62.2188 22.4062 64.1172 24.3281 66.8359C25.7812 64.7734 26.9062 62.1016 27.7031 58.8203C28.5 55.4922 28.9453 51.9297 29.0391 48.1328ZM56.4609 43.8438C56.4609 43.3281 56.7656 42.9531 57.375 42.7188C58.0312 42.4375 58.7109 42.2969 59.4141 42.2969C60.1641 42.2969 60.8438 42.4375 61.4531 42.7188C62.0625 42.9531 62.3438 43.2812 62.2969 43.7031C62.25 44.0312 62.2031 44.6875 62.1562 45.6719C62.1094 46.6094 62.0391 47.7344 61.9453 49.0469C61.8984 50.3594 61.8281 51.7656 61.7344 53.2656C61.6406 54.7656 61.5469 56.2422 61.4531 57.6953C61.4062 59.1016 61.3594 60.4141 61.3125 61.6328C61.3125 62.8516 61.3125 63.7891 61.3125 64.4453C61.3125 65.2891 61.3594 66.0625 61.4531 66.7656C61.5469 67.375 61.6641 67.9844 61.8047 68.5938C61.9453 69.1562 62.1562 69.5547 62.4375 69.7891C62.0625 69.9297 61.6641 70.0234 61.2422 70.0703C60.8672 70.1172 60.5156 70.1641 60.1875 70.2109C59.8125 70.2578 59.4375 70.2812 59.0625 70.2812C58.2656 70.2812 57.5859 70.1172 57.0234 69.7891C56.5078 69.4609 56.25 68.7812 56.25 67.75C56.25 67.2344 56.2734 66.4844 56.3203 65.5C56.4141 64.5156 56.5078 63.4609 56.6016 62.3359C56.2734 63.3203 55.875 64.3281 55.4062 65.3594C54.9375 66.3906 54.3516 67.3047 53.6484 68.1016C52.9922 68.8984 52.2422 69.5547 51.3984 70.0703C50.5547 70.5859 49.5938 70.8438 48.5156 70.8438C47.2969 70.8438 46.1719 70.5859 45.1406 70.0703C44.1562 69.5547 43.2891 68.8281 42.5391 67.8906C41.7891 66.9062 41.2266 65.7109 40.8516 64.3047C40.4766 62.8984 40.3359 61.2812 40.4297 59.4531C40.4297 58.0469 40.4531 56.5469 40.5 54.9531C40.5469 53.5938 40.6172 52.0234 40.7109 50.2422C40.8047 48.4609 40.9688 46.6094 41.2031 44.6875C41.25 44.5 41.5781 44.2656 42.1875 43.9844C42.7969 43.7031 43.4766 43.4688 44.2266 43.2812C44.9766 43.0938 45.7031 43.0234 46.4062 43.0703C47.1094 43.1172 47.625 43.3984 47.9531 43.9141C47.7188 44.7578 47.4844 45.7656 47.25 46.9375C47.0156 48.0625 46.8047 49.2344 46.6172 50.4531C46.4297 51.6719 46.2891 52.8672 46.1953 54.0391C46.1016 55.2109 46.0547 56.2891 46.0547 57.2734C46.0547 58.1641 46.1016 59.1484 46.1953 60.2266C46.2891 61.2578 46.4531 62.2422 46.6875 63.1797C46.9688 64.0703 47.3438 64.8203 47.8125 65.4297C48.3281 66.0391 48.9844 66.3438 49.7812 66.3438C50.6719 66.3438 51.4453 65.9688 52.1016 65.2188C52.8047 64.4219 53.3906 63.4141 53.8594 62.1953C54.3281 60.9766 54.7266 59.5938 55.0547 58.0469C55.3828 56.4531 55.6406 54.8828 55.8281 53.3359C56.0625 51.7891 56.2031 50.3125 56.25 48.9062C56.3438 47.4531 56.4141 46.2344 56.4609 45.25V43.8438ZM86.625 57.9062C86.5312 59.7344 86.2031 61.4219 85.6406 62.9688C85.125 64.5156 84.3984 65.875 83.4609 67.0469C82.5234 68.1719 81.3984 69.0625 80.0859 69.7188C78.8203 70.375 77.4141 70.7266 75.8672 70.7734C74.5078 70.8203 73.2188 70.4922 72 69.7891C70.8281 69.0859 69.7969 68.1016 68.9062 66.8359C68.0156 65.5703 67.3359 64.0703 66.8672 62.3359C66.4453 60.5547 66.3281 58.6328 66.5156 56.5703C66.6562 54.1797 67.1016 52.1406 67.8516 50.4531C68.6016 48.7188 69.3984 47.2891 70.2422 46.1641C71.0859 45.0391 71.8594 44.2188 72.5625 43.7031C73.3125 43.1406 73.7812 42.8125 73.9688 42.7188C74.2969 42.5781 74.6016 42.5547 74.8828 42.6484C75.1641 42.6953 75.4688 42.7656 75.7969 42.8594C75.8906 42.9062 75.9844 43.0234 76.0781 43.2109C76.2656 43.5391 76.3828 44.1484 76.4297 45.0391C76.6641 44.5234 76.9688 44.1016 77.3438 43.7734C77.7188 43.4453 78.0938 43.2109 78.4688 43.0703C78.9375 42.8828 79.4062 42.7656 79.875 42.7188C80.2031 42.6719 80.7656 42.9297 81.5625 43.4922C82.4062 44.0547 83.2031 44.9453 83.9531 46.1641C84.75 47.3828 85.4297 48.9766 85.9922 50.9453C86.5547 52.8672 86.7656 55.1875 86.625 57.9062ZM81.8438 57.0625C81.8906 55.9375 81.8438 54.8125 81.7031 53.6875C81.6094 52.5156 81.4219 51.4609 81.1406 50.5234C80.9062 49.5391 80.6016 48.7656 80.2266 48.2031C79.8516 47.5938 79.4766 47.2891 79.1016 47.2891C78.6797 47.3828 78.2109 47.5938 77.6953 47.9219C77.2734 48.2031 76.8047 48.6484 76.2891 49.2578C75.7734 49.8672 75.2812 50.7344 74.8125 51.8594C74.7656 51.7188 74.7188 51.4609 74.6719 51.0859C74.625 50.7578 74.5781 50.3359 74.5312 49.8203C74.5312 49.2578 74.5781 48.5078 74.6719 47.5703C74.0156 48.3672 73.5 49.3047 73.125 50.3828C72.7969 51.4609 72.5391 52.4922 72.3516 53.4766C72.1641 54.6484 72.0234 55.8203 71.9297 56.9922C71.8828 58.2578 71.9297 59.5 72.0703 60.7188C72.2578 61.9375 72.5391 63.0156 72.9141 63.9531C73.3359 64.8906 73.8281 65.6406 74.3906 66.2031C74.9531 66.7656 75.6328 67.0234 76.4297 66.9766C77.2266 66.9297 77.9297 66.6016 78.5391 65.9922C79.1484 65.3828 79.6875 64.6094 80.1562 63.6719C80.625 62.7344 81 61.6797 81.2812 60.5078C81.5625 59.3359 81.75 58.1875 81.8438 57.0625ZM116.859 38.7109C116.344 38.6172 115.641 38.5234 114.75 38.4297C113.906 38.3359 113.039 38.2656 112.148 38.2188C111.117 38.1719 110.016 38.1484 108.844 38.1484C107.672 38.0547 106.195 38.0547 104.414 38.1484C102.68 38.1953 100.852 38.2188 98.9297 38.2188C98.8828 39.4375 98.7891 40.6797 98.6484 41.9453C98.5547 43.2109 98.4609 44.4531 98.3672 45.6719C98.1328 47.9219 97.9219 50.2188 97.7344 52.5625C97.5938 54.9062 97.5234 57.1328 97.5234 59.2422C97.5234 61.3516 97.6406 63.2734 97.875 65.0078C98.1562 66.6953 98.6484 68.0312 99.3516 69.0156C98.7891 69.4375 98.1797 69.7656 97.5234 70C96.8672 70.1875 96.2812 70.3281 95.7656 70.4219C95.1562 70.5625 94.5469 70.6328 93.9375 70.6328C93.375 70.6328 92.9062 70.4453 92.5312 70.0703C92.1562 69.6953 91.9453 69.0391 91.8984 68.1016C91.8047 66.5078 91.7812 64.9141 91.8281 63.3203C91.9219 61.6797 92.0156 59.9688 92.1094 58.1875C92.25 56.4062 92.3906 54.5078 92.5312 52.4922C92.6719 50.4297 92.8125 48.1797 92.9531 45.7422C93.0938 43.2109 93.1641 40.75 93.1641 38.3594C91.3828 38.4062 89.8828 38.4297 88.6641 38.4297C87.4453 38.4297 86.7656 38.4062 86.625 38.3594C86.4844 38.2656 86.3203 38.0547 86.1328 37.7266C85.9453 37.4453 85.7109 37.0234 85.4297 36.4609C85.1016 35.8984 84.7031 35.1016 84.2344 34.0703C85.125 34.0703 86.1094 34.0703 87.1875 34.0703C88.2188 34.0703 89.1797 34.0469 90.0703 34C91.1016 33.9531 92.1328 33.9062 93.1641 33.8594C93.1172 33.1094 93.0938 32.3125 93.0938 31.4688C93.0469 30.8125 93.0234 30.0859 93.0234 29.2891C93.0234 28.4453 93 27.6719 92.9531 26.9688C92.9531 26.6875 93.2812 26.3594 93.9375 25.9844C94.6406 25.5625 95.3906 25.1875 96.1875 24.8594C96.9844 24.5313 97.7109 24.3203 98.3672 24.2266C99.0703 24.1328 99.4219 24.2969 99.4219 24.7188C99.4219 25.1406 99.3984 26.1719 99.3516 27.8125C99.3516 29.4062 99.3047 31.3516 99.2109 33.6484C99.6797 33.6484 100.031 33.625 100.266 33.5781C102.75 33.4844 104.742 33.3906 106.242 33.2969C107.789 33.1562 109.055 33.1328 110.039 33.2266C111.023 33.3203 111.891 33.5547 112.641 33.9297C113.391 34.3047 114.234 34.9141 115.172 35.7578C115.5 36.0391 115.781 36.3438 116.016 36.6719C116.25 36.9531 116.438 37.2812 116.578 37.6562C116.766 37.9844 116.859 38.3359 116.859 38.7109ZM114.469 70.7734C111.188 70.7734 108.656 69.6719 106.875 67.4688C105.094 65.2656 104.203 62.3828 104.203 58.8203C104.203 56.3359 104.555 54.0156 105.258 51.8594C106.008 49.6562 106.992 47.7578 108.211 46.1641C109.43 44.5703 110.836 43.3281 112.43 42.4375C114.07 41.5 115.781 41.0312 117.562 41.0312C119.297 41.0312 120.773 41.6641 121.992 42.9297C123.211 44.1484 123.82 45.9062 123.82 48.2031C123.82 49.7031 123.492 51.2031 122.836 52.7031C122.18 54.1562 121.312 55.4688 120.234 56.6406C119.203 57.7656 118.055 58.6797 116.789 59.3828C115.523 60.0859 114.305 60.4375 113.133 60.4375C112.383 60.4375 111.75 60.3438 111.234 60.1562C110.719 59.9688 110.25 59.6875 109.828 59.3125C109.969 61.9844 110.555 63.8594 111.586 64.9375C112.617 65.9688 113.953 66.4844 115.594 66.4844C116.719 66.4844 117.703 66.25 118.547 65.7812C119.438 65.3125 120.188 64.7734 120.797 64.1641C121.406 63.5547 121.898 62.9453 122.273 62.3359C122.648 61.6797 122.906 61.1875 123.047 60.8594C123.188 60.5781 123.422 60.4375 123.75 60.4375C124.125 60.4375 124.312 60.7188 124.312 61.2812C124.312 61.7969 124.125 62.5938 123.75 63.6719C123.422 64.7031 122.859 65.7578 122.062 66.8359C121.266 67.8672 120.234 68.7812 118.969 69.5781C117.75 70.375 116.25 70.7734 114.469 70.7734ZM117.703 44.0547C117.422 44.0547 116.883 44.3594 116.086 44.9688C115.336 45.5312 114.516 46.375 113.625 47.5C112.781 48.625 111.984 49.9844 111.234 51.5781C110.531 53.125 110.086 54.8828 109.898 56.8516C112.711 56.1953 114.938 55.1641 116.578 53.7578C118.219 52.3516 119.039 50.2891 119.039 47.5703C119.039 46.2109 118.875 45.2969 118.547 44.8281C118.219 44.3125 117.938 44.0547 117.703 44.0547ZM139.5 56.6406C140.531 57.0156 141.516 57.3672 142.453 57.6953C143.391 58.0234 144.211 58.4219 144.914 58.8906C145.617 59.3594 146.18 59.9219 146.602 60.5781C147.023 61.1875 147.234 61.9609 147.234 62.8984C147.234 64.0234 146.977 65.0781 146.461 66.0625C145.992 67.0469 145.289 67.9141 144.352 68.6641C143.414 69.4141 142.266 70 140.906 70.4219C139.594 70.8906 138.117 71.125 136.477 71.125C134.648 71.125 133.172 70.9375 132.047 70.5625C130.922 70.2344 130.055 69.8359 129.445 69.3672C128.836 68.8984 128.438 68.4297 128.25 67.9609C128.062 67.4922 127.969 67.1172 127.969 66.8359C127.969 66.2734 128.086 65.6641 128.32 65.0078C128.555 64.3047 129 63.5547 129.656 62.7578C129.938 62.4297 130.242 62.125 130.57 61.8438C131.227 61.2812 131.883 60.9297 132.539 60.7891C132.445 61.8672 132.562 62.7578 132.891 63.4609C133.266 64.1172 133.734 64.6328 134.297 65.0078C134.906 65.3828 135.562 65.6406 136.266 65.7812C137.016 65.9219 137.719 65.9922 138.375 65.9922C139.031 65.9922 139.688 65.8984 140.344 65.7109C141.047 65.5234 141.68 65.2891 142.242 65.0078C142.805 64.6797 143.25 64.3281 143.578 63.9531C143.953 63.5312 144.141 63.0859 144.141 62.6172C144.141 62.1016 143.93 61.6797 143.508 61.3516C143.086 61.0234 142.547 60.7656 141.891 60.5781C141.281 60.3438 140.602 60.1797 139.852 60.0859C139.148 59.9453 138.469 59.8047 137.812 59.6641C137.156 59.5234 136.266 59.3359 135.141 59.1016C134.062 58.8203 132.984 58.3984 131.906 57.8359C130.875 57.2734 129.961 56.5234 129.164 55.5859C128.414 54.6484 128.039 53.4062 128.039 51.8594C128.039 50.0781 128.484 48.5312 129.375 47.2188C130.312 45.8594 131.438 44.7344 132.75 43.8438C134.109 42.9062 135.539 42.2031 137.039 41.7344C138.539 41.2656 139.875 41.0312 141.047 41.0312C141.656 41.0312 142.312 41.125 143.016 41.3125C143.719 41.4531 144.375 41.7344 144.984 42.1562C145.594 42.5312 146.086 43.0469 146.461 43.7031C146.883 44.3594 147.094 45.2031 147.094 46.2344C147.094 47.2656 147 48.1094 146.812 48.7656C146.672 49.375 146.438 49.8672 146.109 50.2422C145.828 50.5703 145.477 50.7812 145.055 50.875C144.633 50.9688 144.141 51.0156 143.578 51.0156C143.203 51.0156 142.852 50.9688 142.523 50.875C142.242 50.7812 141.938 50.6875 141.609 50.5938C141.281 50.5 140.977 50.3359 140.695 50.1016C141.164 49.5391 141.516 49 141.75 48.4844C142.031 47.9688 142.172 47.3359 142.172 46.5859C142.172 45.9297 141.984 45.3438 141.609 44.8281C141.281 44.3125 140.719 44.0547 139.922 44.0547C139.078 44.0547 138.258 44.2188 137.461 44.5469C136.711 44.875 136.031 45.3203 135.422 45.8828C134.859 46.4453 134.391 47.1016 134.016 47.8516C133.688 48.5547 133.523 49.3281 133.523 50.1719C133.523 51.4375 133.992 52.6328 134.93 53.7578C135.914 54.8828 137.438 55.8438 139.5 56.6406Z" fill="black"/>
<path d="M153.387 36.744C153.195 36.744 153.027 36.72 152.883 36.672C152.739 36.576 152.571 36.432 152.379 36.24V35.952C152.379 35.52 152.619 34.992 153.099 34.368C154.923 31.392 156.075 29.232 156.555 27.888C156.555 27.696 156.579 27.528 156.627 27.384C155.811 27.528 154.971 27.24 154.107 26.52C153.435 25.848 153.099 25.176 153.099 24.504C153.099 23.448 153.915 22.368 155.547 21.264C156.507 20.688 157.203 20.4 157.635 20.4C157.875 20.4 158.451 20.568 159.363 20.904C160.659 21.672 161.307 22.584 161.307 23.64C161.307 23.832 161.259 24.072 161.163 24.36C161.019 25.608 160.611 27.072 159.939 28.752L159.435 30.264C159.195 31.224 158.763 32.136 158.139 33C157.563 33.864 156.771 34.872 155.763 36.024C155.763 36.12 155.691 36.216 155.547 36.312C155.403 36.36 155.187 36.432 154.899 36.528C154.659 36.576 154.371 36.648 154.035 36.744H153.387ZM164.187 36.744C163.995 36.744 163.827 36.72 163.683 36.672C163.539 36.576 163.371 36.432 163.179 36.24V35.952C163.179 35.52 163.419 34.992 163.899 34.368C165.723 31.392 166.875 29.232 167.355 27.888C167.355 27.696 167.379 27.528 167.427 27.384C166.611 27.528 165.771 27.24 164.907 26.52C164.235 25.848 163.899 25.176 163.899 24.504C163.899 23.448 164.715 22.368 166.347 21.264C167.307 20.688 168.003 20.4 168.435 20.4C168.675 20.4 169.251 20.568 170.163 20.904C171.459 21.672 172.107 22.584 172.107 23.64C172.107 23.832 172.059 24.072 171.963 24.36C171.819 25.608 171.411 27.072 170.739 28.752L170.235 30.264C169.995 31.224 169.563 32.136 168.939 33C168.363 33.864 167.571 34.872 166.563 36.024C166.563 36.12 166.491 36.216 166.347 36.312C166.203 36.36 165.987 36.432 165.699 36.528C165.459 36.576 165.171 36.648 164.835 36.744H164.187Z" fill="black"/>
</svg>
